# xmcd
#
# Track frame offsets:
#	150
#	15895
#	27947
#	41105
#	52795
#	68177
#	81385
#	95455
#	109795
#	123795
#
# Disc length: 1838 seconds
#
# Revision: 2
# Processed by: cddbd v1.5.2PL0 Copyright (c) Steve Scherf et al.
# Submitted via: dBpowerAMP V4.0
#
DISCID=73072c0a
DTITLE=Lacy J. Dalton - Greatest Hits
DYEAR=1900
DGENRE=country
TTITLE0=Takin' It Easy
TTITLE1=Slow Down
TTITLE2=Crazy Blue Eyes
TTITLE3=Hard Times
TTITLE4=Everybody Makes Mistakes
TTITLE5=Dream Baby (How Long Must I Dream)
TTITLE6=Whisper
TTITLE7=Losing Kind of Love
TTITLE8=Tennessee Waltz
TTITLE9=16th Avenue
EXTD=
EXTT0=
EXTT1=
EXTT2=
EXTT3=
EXTT4=
EXTT5=
EXTT6=
EXTT7=
EXTT8=
EXTT9=
PLAYORDER=
